<svg xmlns="http://www.w3.org/2000/svg" xmlns:xlink="http://www.w3.org/1999/xlink" viewBox="0 0 401.46 101.36"><defs><style>.cls-1{isolation:isolate;}.cls-2,.cls-4,.cls-5{mix-blend-mode:screen;}.cls-2{fill:url(#linear-gradient);}.cls-3{fill:url(#linear-gradient-2);}.cls-4{fill:#d4d6d5;}.cls-5{fill:#d8d8db;}.cls-6,.cls-7{opacity:0.75;mix-blend-mode:multiply;}.cls-6{fill:url(#linear-gradient-3);}.cls-7{fill:url(#linear-gradient-4);}.cls-8{fill:#272525;}</style><linearGradient id="linear-gradient" x1="138.16" y1="218.94" x2="200.06" y2="277.85" gradientTransform="translate(403.26 80.83) rotate(90)" gradientUnits="userSpaceOnUse"><stop offset="0" stop-color="#444bd3" stop-opacity="0.5"/><stop offset="1" stop-color="#f97aa0"/></linearGradient><linearGradient id="linear-gradient-2" x1="105.43" y1="218.54" x2="167.33" y2="277.45" gradientTransform="translate(403.26 80.83) rotate(90)" gradientUnits="userSpaceOnUse"><stop offset="0" stop-color="#f97aa0"/><stop offset="1" stop-color="#444bd3" stop-opacity="0.5"/></linearGradient><linearGradient id="linear-gradient-3" x1="230.52" y1="353.41" x2="230.52" y2="334.96" gradientTransform="translate(441.32 139.47) rotate(135)" gradientUnits="userSpaceOnUse"><stop offset="0" stop-color="#1e1959"/><stop offset="0.99" stop-color="#1e1959" stop-opacity="0"/></linearGradient><linearGradient id="linear-gradient-4" x1="211.62" y1="149.68" x2="211.62" y2="131.23" gradientTransform="translate(-121.09 92.59) rotate(-45)" xlink:href="#linear-gradient-3"/></defs><g class="cls-1"><g id="OBJECTS"><path class="cls-2" d="M77.34,252.79a3.46,3.46,0,0,1,0-5.55l66.3-54.73a5.49,5.49,0,0,1,6.72,0l66.3,54.73a3.46,3.46,0,0,1,0,5.55,5.49,5.49,0,0,1-6.72,0L147,200.84,84.06,252.79A5.49,5.49,0,0,1,77.34,252.79ZM67,261.33h0a5.51,5.51,0,0,0,6.73,0h0a3.47,3.47,0,0,0,0-5.55h0a5.51,5.51,0,0,0-6.73,0h0A3.46,3.46,0,0,0,67,261.33ZM219.88,261h0a5.51,5.51,0,0,0,6.73,0h0a3.47,3.47,0,0,0,0-5.56h0a5.51,5.51,0,0,0-6.73,0h0A3.47,3.47,0,0,0,219.88,261Z" transform="translate(-65.6 -191.36)"/><path class="cls-3" d="M143.64,291.57l-66.3-54.72a3.46,3.46,0,0,1,0-5.55,5.49,5.49,0,0,1,6.72,0L147,283.25l62.94-51.95a5.49,5.49,0,0,1,6.72,0,3.46,3.46,0,0,1,0,5.55l-66.3,54.72A5.46,5.46,0,0,1,143.64,291.57ZM227,222.76a5.46,5.46,0,0,0-6.72,0,3.46,3.46,0,0,0,0,5.55,5.49,5.49,0,0,0,6.72,0A3.46,3.46,0,0,0,227,222.76ZM67.39,228.6h0a5.48,5.48,0,0,0,6.73,0h0a3.46,3.46,0,0,0,0-5.55h0a5.51,5.51,0,0,0-6.73,0h0A3.47,3.47,0,0,0,67.39,228.6Z" transform="translate(-65.6 -191.36)"/><path class="cls-4" d="M160.92,253.53c7.69-6.34,7.69-16.63,0-23s-20.15-6.34-27.84,0-7.69,16.64,0,23S153.23,259.88,160.92,253.53Zm-22-18.19a13.25,13.25,0,0,1,16.25,0,8.36,8.36,0,0,1,0,13.41,13.25,13.25,0,0,1-16.25,0A8.36,8.36,0,0,1,138.88,235.34Z" transform="translate(-65.6 -191.36)"/><path class="cls-5" d="M151.11,245.43a4.23,4.23,0,0,0,0-6.78,6.72,6.72,0,0,0-8.22,0,4.24,4.24,0,0,0,0,6.78A6.7,6.7,0,0,0,151.11,245.43Z" transform="translate(-65.6 -191.36)"/><polygon class="cls-6" points="24.76 56.23 31.48 50.68 45.14 61.95 38.41 67.5 24.76 56.23"/><polygon class="cls-7" points="138.05 45.13 131.32 50.68 117.67 39.41 124.39 33.86 138.05 45.13"/><path class="cls-8" d="M248.52,257.05V224.12h4.32v32.93Zm2.2-29v-3.95H270v3.95Zm0,14.07v-3.75h17.09v3.75Zm0,14.91v-3.89h19.35v3.89Z" transform="translate(-65.6 -191.36)"/><path class="cls-8" d="M282.55,265.29a14.51,14.51,0,0,1-3.7-.48,12.6,12.6,0,0,1-3.34-1.37,8.18,8.18,0,0,1-2.49-2.3l2.07-3.49a7.18,7.18,0,0,0,3.12,2.62,10.32,10.32,0,0,0,4.25.87,7.73,7.73,0,0,0,3.66-.79,6.72,6.72,0,0,0,2.47-2.27,10,10,0,0,0,1.36-3.6,25.78,25.78,0,0,0,.4-4.66l.47-5.34h-.61a18.72,18.72,0,0,1-1.62,6,7.75,7.75,0,0,1-2.84,3.24,7.32,7.32,0,0,1-3.81,1,7.18,7.18,0,0,1-3.75-.9,6.73,6.73,0,0,1-2.37-2.37,11.38,11.38,0,0,1-1.27-3.17A20.89,20.89,0,0,1,274,245c-.08-1-.11-1.93-.11-2.66V231.26h4.17V241c0,.6,0,1.3.05,2.12a15.56,15.56,0,0,0,.31,2.54,10.34,10.34,0,0,0,.79,2.47,4.63,4.63,0,0,0,1.53,1.85,4.26,4.26,0,0,0,2.49.7,4.69,4.69,0,0,0,2.74-.83,6.17,6.17,0,0,0,2-2.44,15.2,15.2,0,0,0,1.22-3.79,32.47,32.47,0,0,0,.52-4.87v-7.53h4.32V250a29.72,29.72,0,0,1-.22,3.66,22.14,22.14,0,0,1-.68,3.52,14.05,14.05,0,0,1-1.29,3.17,10.14,10.14,0,0,1-2.09,2.62,8.41,8.41,0,0,1-3,1.75A13.12,13.12,0,0,1,282.55,265.29Z" transform="translate(-65.6 -191.36)"/><path class="cls-8" d="M310.86,257.75a12.09,12.09,0,0,1-5-1,10.51,10.51,0,0,1-3.66-2.7,11.21,11.21,0,0,1-2.26-4.16,18.14,18.14,0,0,1-.75-5.34,19.9,19.9,0,0,1,.73-5.54,13.26,13.26,0,0,1,2.16-4.41,10.31,10.31,0,0,1,3.54-2.95,10.73,10.73,0,0,1,4.89-1.07,10.43,10.43,0,0,1,4.43.9,8.9,8.9,0,0,1,3.31,2.64,11.63,11.63,0,0,1,2,4.34,21.29,21.29,0,0,1,.52,6l-19,.2v-3.14l16.15-.1-1.27,1.89a11.29,11.29,0,0,0-.49-4.84,6.26,6.26,0,0,0-2.16-3,5.74,5.74,0,0,0-3.5-1.05,6.09,6.09,0,0,0-3.85,1.25,8,8,0,0,0-2.46,3.47,14.38,14.38,0,0,0-.87,5.26q0,4.63,1.95,7.11A6.76,6.76,0,0,0,311,254a7.29,7.29,0,0,0,2.77-.47,5.27,5.27,0,0,0,1.87-1.3,7.37,7.37,0,0,0,1.2-1.75,4.89,4.89,0,0,0,.49-2l3.95.75a12.29,12.29,0,0,1-1.11,3.44,8.81,8.81,0,0,1-2.08,2.7,9.13,9.13,0,0,1-3.1,1.74A12.8,12.8,0,0,1,310.86,257.75Z" transform="translate(-65.6 -191.36)"/><path class="cls-8" d="M326.31,257.05V224.12h4.32v32.93Zm2.35,0v-3.89h9a8.84,8.84,0,0,0,4-.87,7.49,7.49,0,0,0,2.89-2.5,13.14,13.14,0,0,0,1.78-3.94,18.82,18.82,0,0,0,.66-5.16,22.73,22.73,0,0,0-.54-5.19,11.13,11.13,0,0,0-1.74-4,7.82,7.82,0,0,0-3.26-2.59,12.2,12.2,0,0,0-5-.92h-7.7v-3.9h7.65a16.74,16.74,0,0,1,8.54,1.95,11.68,11.68,0,0,1,4.91,5.56,21.8,21.8,0,0,1,1.57,8.71,24.51,24.51,0,0,1-.8,6.68,14.84,14.84,0,0,1-2.2,4.79,12.42,12.42,0,0,1-3.13,3.1,11.8,11.8,0,0,1-3.66,1.64,15,15,0,0,1-3.82.5Z" transform="translate(-65.6 -191.36)"/><path class="cls-8" d="M367.53,257.75a11.4,11.4,0,0,1-6-1.6,10.83,10.83,0,0,1-4.16-4.64,16.65,16.65,0,0,1-1.5-7.43,16.19,16.19,0,0,1,1.55-7.48,10.52,10.52,0,0,1,4.2-4.49,11.76,11.76,0,0,1,5.89-1.5,11.62,11.62,0,0,1,6,1.55,10.87,10.87,0,0,1,4.18,4.59,16.53,16.53,0,0,1,1.55,7.53,16,16,0,0,1-1.53,7.43,10.7,10.7,0,0,1-4.18,4.49A11.54,11.54,0,0,1,367.53,257.75Zm.19-3.79a6.53,6.53,0,0,0,2.6-.55,6.29,6.29,0,0,0,2.28-1.65,8.74,8.74,0,0,0,1.64-2.91,12.88,12.88,0,0,0,.66-4.37,14,14,0,0,0-.66-4.59,9,9,0,0,0-1.71-3.07,7.36,7.36,0,0,0-2.37-1.77,6.83,6.83,0,0,0-2.87-.6,6.68,6.68,0,0,0-4.85,2.17,7.73,7.73,0,0,0-1.67,3,16.39,16.39,0,0,0,0,8.93,7.84,7.84,0,0,0,4.11,4.82A6.57,6.57,0,0,0,367.72,254Z" transform="translate(-65.6 -191.36)"/><path class="cls-8" d="M395,257.75a12,12,0,0,1-5.26-1.07,10,10,0,0,1-3.61-2.92,12.89,12.89,0,0,1-2.12-4.24,18.14,18.14,0,0,1-.7-5.14,19.22,19.22,0,0,1,.73-5.41,12.69,12.69,0,0,1,2.16-4.37,10.34,10.34,0,0,1,3.56-2.92,10.88,10.88,0,0,1,4.91-1.07,11.74,11.74,0,0,1,4.09.65,9,9,0,0,1,3,1.85,8.25,8.25,0,0,1,2,2.81,11.43,11.43,0,0,1,.89,3.42l-3.94,1a8.14,8.14,0,0,0-.85-3,5.21,5.21,0,0,0-2-2.14,6.62,6.62,0,0,0-6-.1,6.74,6.74,0,0,0-2.2,1.87,8.08,8.08,0,0,0-1.43,3,16.07,16.07,0,0,0-.5,4.24,14.49,14.49,0,0,0,.85,5.31,6.62,6.62,0,0,0,6.48,4.47,6,6,0,0,0,3.4-.87,6.64,6.64,0,0,0,2.07-2.27,8.63,8.63,0,0,0,1-3.3l3.94.75a12.63,12.63,0,0,1-1,4,9.29,9.29,0,0,1-2.11,2.94,8.88,8.88,0,0,1-3.15,1.87A12.39,12.39,0,0,1,395,257.75Z" transform="translate(-65.6 -191.36)"/><path class="cls-8" d="M417.29,257.6a7.23,7.23,0,0,1-2.91-.55,5.51,5.51,0,0,1-2.09-1.54,6.74,6.74,0,0,1-1.24-2.45,12.17,12.17,0,0,1-.42-3.39V235h-3.38v-3.54h2a3,3,0,0,0,1.88-.7,3,3,0,0,0,.75-1.85l.37-3.34h2.68v5.69h6.71v3.84H414.9v14.52a3.87,3.87,0,0,0,.89,2.94,3.46,3.46,0,0,0,2.4.8,6.47,6.47,0,0,0,1.78-.27,5.44,5.44,0,0,0,1.78-.93v4.44a10.92,10.92,0,0,1-2.32.78A10.73,10.73,0,0,1,417.29,257.6Z" transform="translate(-65.6 -191.36)"/><path class="cls-8" d="M436.21,257.75a11.42,11.42,0,0,1-6-1.6,10.89,10.89,0,0,1-4.16-4.64,16.65,16.65,0,0,1-1.5-7.43,16.19,16.19,0,0,1,1.55-7.48,10.52,10.52,0,0,1,4.2-4.49,11.76,11.76,0,0,1,5.89-1.5,11.62,11.62,0,0,1,6,1.55,10.81,10.81,0,0,1,4.18,4.59,16.53,16.53,0,0,1,1.55,7.53,16.16,16.16,0,0,1-1.52,7.43,10.83,10.83,0,0,1-4.18,4.49A11.6,11.6,0,0,1,436.21,257.75Zm.19-3.79a6.5,6.5,0,0,0,2.6-.55,6.21,6.21,0,0,0,2.28-1.65,8.57,8.57,0,0,0,1.64-2.91,12.88,12.88,0,0,0,.66-4.37,14,14,0,0,0-.66-4.59,8.67,8.67,0,0,0-1.71-3.07,7.15,7.15,0,0,0-2.37-1.77,6.82,6.82,0,0,0-2.86-.6,6.68,6.68,0,0,0-4.86,2.17,7.86,7.86,0,0,0-1.67,3,16.39,16.39,0,0,0,0,8.93,7.84,7.84,0,0,0,4.11,4.82A6.6,6.6,0,0,0,436.4,254Z" transform="translate(-65.6 -191.36)"/><path class="cls-8" d="M453.16,257.05V231.26H457l-.52,10.08h.66a26.43,26.43,0,0,1,1.36-5.87,8.61,8.61,0,0,1,2.35-3.54,5.31,5.31,0,0,1,3.52-1.22,7.49,7.49,0,0,1,1.24.1,10.25,10.25,0,0,1,1.44.35l-.28,4.79a7.47,7.47,0,0,0-1.46-.45,6.83,6.83,0,0,0-1.32-.15,4.41,4.41,0,0,0-3.23,1.35,9.66,9.66,0,0,0-2.21,3.71,23.7,23.7,0,0,0-1.17,5.57v11.07Z" transform="translate(-65.6 -191.36)"/></g></g></svg>