<svg xmlns="http://www.w3.org/2000/svg" xmlns:xlink="http://www.w3.org/1999/xlink" viewBox="0 0 162.81 101.36"><defs><style>.cls-1{isolation:isolate;}.cls-2,.cls-4,.cls-5{mix-blend-mode:screen;}.cls-2{fill:url(#linear-gradient);}.cls-3{fill:url(#linear-gradient-2);}.cls-4{fill:#d4d6d5;}.cls-5{fill:#d8d8db;}.cls-6,.cls-7{opacity:0.75;mix-blend-mode:multiply;}.cls-6{fill:url(#linear-gradient-3);}.cls-7{fill:url(#linear-gradient-4);}</style><linearGradient id="linear-gradient" x1="138.16" y1="218.94" x2="200.06" y2="277.85" gradientTransform="translate(403.26 80.83) rotate(90)" gradientUnits="userSpaceOnUse"><stop offset="0" stop-color="#444bd3" stop-opacity="0.5"/><stop offset="1" stop-color="#f97aa0"/></linearGradient><linearGradient id="linear-gradient-2" x1="105.43" y1="218.54" x2="167.33" y2="277.45" gradientTransform="translate(403.26 80.83) rotate(90)" gradientUnits="userSpaceOnUse"><stop offset="0" stop-color="#f97aa0"/><stop offset="1" stop-color="#444bd3" stop-opacity="0.5"/></linearGradient><linearGradient id="linear-gradient-3" x1="230.52" y1="353.41" x2="230.52" y2="334.96" gradientTransform="translate(441.32 139.47) rotate(135)" gradientUnits="userSpaceOnUse"><stop offset="0" stop-color="#1e1959"/><stop offset="0.99" stop-color="#1e1959" stop-opacity="0"/></linearGradient><linearGradient id="linear-gradient-4" x1="211.62" y1="149.68" x2="211.62" y2="131.23" gradientTransform="translate(-121.09 92.59) rotate(-45)" xlink:href="#linear-gradient-3"/></defs><g class="cls-1"><g id="OBJECTS"><path class="cls-2" d="M77.34,252.79a3.46,3.46,0,0,1,0-5.55l66.3-54.73a5.49,5.49,0,0,1,6.72,0l66.3,54.73a3.46,3.46,0,0,1,0,5.55,5.49,5.49,0,0,1-6.72,0L147,200.84,84.06,252.79A5.49,5.49,0,0,1,77.34,252.79ZM67,261.33h0a5.51,5.51,0,0,0,6.73,0h0a3.47,3.47,0,0,0,0-5.55h0a5.51,5.51,0,0,0-6.73,0h0A3.46,3.46,0,0,0,67,261.33ZM219.88,261h0a5.51,5.51,0,0,0,6.73,0h0a3.47,3.47,0,0,0,0-5.56h0a5.51,5.51,0,0,0-6.73,0h0A3.47,3.47,0,0,0,219.88,261Z" transform="translate(-65.6 -191.36)"/><path class="cls-3" d="M143.64,291.57l-66.3-54.72a3.46,3.46,0,0,1,0-5.55,5.49,5.49,0,0,1,6.72,0L147,283.25l62.94-51.95a5.49,5.49,0,0,1,6.72,0,3.46,3.46,0,0,1,0,5.55l-66.3,54.72A5.46,5.46,0,0,1,143.64,291.57ZM227,222.76a5.46,5.46,0,0,0-6.72,0,3.46,3.46,0,0,0,0,5.55,5.49,5.49,0,0,0,6.72,0A3.46,3.46,0,0,0,227,222.76ZM67.39,228.6h0a5.48,5.48,0,0,0,6.73,0h0a3.46,3.46,0,0,0,0-5.55h0a5.51,5.51,0,0,0-6.73,0h0A3.47,3.47,0,0,0,67.39,228.6Z" transform="translate(-65.6 -191.36)"/><path class="cls-4" d="M160.92,253.53c7.69-6.34,7.69-16.63,0-23s-20.15-6.34-27.84,0-7.69,16.64,0,23S153.23,259.88,160.92,253.53Zm-22-18.19a13.25,13.25,0,0,1,16.25,0,8.36,8.36,0,0,1,0,13.41,13.25,13.25,0,0,1-16.25,0A8.36,8.36,0,0,1,138.88,235.34Z" transform="translate(-65.6 -191.36)"/><path class="cls-5" d="M151.11,245.43a4.23,4.23,0,0,0,0-6.78,6.72,6.72,0,0,0-8.22,0,4.24,4.24,0,0,0,0,6.78A6.7,6.7,0,0,0,151.11,245.43Z" transform="translate(-65.6 -191.36)"/><polygon class="cls-6" points="24.76 56.23 31.48 50.68 45.14 61.95 38.41 67.5 24.76 56.23"/><polygon class="cls-7" points="138.05 45.13 131.32 50.68 117.67 39.41 124.39 33.86 138.05 45.13"/></g></g></svg>